<svg xmlns="http://www.w3.org/2000/svg" viewBox="0 0 1200 720" fill="none">
  <defs>
    <linearGradient id="bg2" x1="0%" y1="0%" x2="100%" y2="100%">
      <stop offset="0%" stop-color="#080a12"/>
      <stop offset="100%" stop-color="#05060a"/>
    </linearGradient>
  </defs>
  <rect width="1200" height="720" fill="url(#bg2)"/>
  <ellipse cx="400" cy="200" rx="200" ry="160" fill="#5ee1d3" opacity="0.06"/>
  <!-- Drawer panel -->
  <rect x="120" y="40" width="960" height="640" rx="20" fill="rgba(14,16,26,0.92)"/>
  <rect x="120" y="40" width="960" height="56" rx="20" fill="rgba(12,14,20,0.6)"/>
  <rect x="140" y="58" width="200" height="18" rx="4" fill="rgba(255,255,255,0.12)"/>
  <rect x="980" y="54" width="36" height="36" rx="8" fill="rgba(255,255,255,0.08)"/>
  <!-- Search -->
  <rect x="160" y="120" width="520" height="40" rx="10" fill="rgba(255,255,255,0.06)"/>
  <rect x="700" y="120" width="100" height="40" rx="10" fill="#8b7cff"/>
  <!-- Toolbar -->
  <rect x="160" y="188" width="140" height="32" rx="8" fill="rgba(255,255,255,0.06)"/>
  <rect x="310" y="188" width="140" height="32" rx="8" fill="rgba(255,255,255,0.06)"/>
  <!-- Cards grid -->
  <g transform="translate(160, 250)">
    <rect width="340" height="140" rx="14" fill="rgba(24,28,40,0.7)" stroke="rgba(139,124,255,0.2)"/>
    <rect x="16" y="16" width="220" height="12" rx="3" fill="rgba(255,255,255,0.15)"/>
    <rect x="16" y="38" width="280" height="8" rx="2" fill="rgba(255,255,255,0.06)"/>
    <rect x="16" y="52" width="240" height="8" rx="2" fill="rgba(255,255,255,0.05)"/>
    <rect x="16" y="100" width="80" height="24" rx="8" fill="rgba(139,124,255,0.35)"/>
    <rect x="360" y="0" width="340" height="140" rx="14" fill="rgba(24,28,40,0.7)" stroke="rgba(255,255,255,0.08)"/>
    <rect x="376" y="16" width="200" height="12" rx="3" fill="rgba(255,255,255,0.15)"/>
    <rect x="376" y="100" width="80" height="24" rx="8" fill="rgba(139,124,255,0.25)"/>
    <rect y="160" width="340" height="140" rx="14" fill="rgba(24,28,40,0.7)" stroke="rgba(255,255,255,0.08)"/>
    <rect x="16" y="176" width="180" height="12" rx="3" fill="rgba(255,255,255,0.15)"/>
    <rect x="360" y="160" width="340" height="140" rx="14" fill="rgba(24,28,40,0.7)" stroke="rgba(255,255,255,0.08)"/>
  </g>
</svg>
